<?xml version="1.0" encoding="iso-8859-1"?>
<!-- Uploaded to: SVG Repo, www.svgrepo.com, Generator: SVG Repo Mixer Tools -->
<svg fill="#eb523d" version="1.1" id="Layer_1" xmlns="http://www.w3.org/2000/svg" xmlns:xlink="http://www.w3.org/1999/xlink" 
	 viewBox="0 0 496 496" xml:space="preserve">
<g>
	<g>
		<g>
			<path d="M496,464v-16h-16V240h-16V0H360h-64H192v96H32v144H16v208H0v16h16v16H0v16h496v-16h-16v-16H496z M312,16h32v96h-32V16z
				 M208,16h88v112h64V16h88v224H256h-8h-24V96h-16V16z M376,256v64h-32v-64H376z M120,112h16v64h-16V112z M48,112h56v80h48v-80h56
				v128H48V112z M152,256v64h-32v-64H152z M32,256h72v80h64v-80h72v192H32V256z M48,480H32v-16h16V480z M224,480H64v-16h160V480z
				 M256,480h-16v-16h16V480z M432,480H272v-16h160V480z M464,480h-16v-16h16V480z M464,448H256V256h72v80h64v-80h72V448z"/>
			<rect x="208" y="416" width="16" height="16"/>
			<rect x="176" y="416" width="16" height="16"/>
			<rect x="144" y="416" width="16" height="16"/>
			<rect x="208" y="384" width="16" height="16"/>
			<rect x="176" y="384" width="16" height="16"/>
			<rect x="208" y="352" width="16" height="16"/>
			<rect x="432" y="416" width="16" height="16"/>
			<rect x="400" y="416" width="16" height="16"/>
			<rect x="368" y="416" width="16" height="16"/>
			<rect x="432" y="384" width="16" height="16"/>
			<rect x="400" y="384" width="16" height="16"/>
			<rect x="432" y="352" width="16" height="16"/>
			<rect x="416" y="208" width="16" height="16"/>
			<rect x="384" y="208" width="16" height="16"/>
			<rect x="352" y="208" width="16" height="16"/>
			<rect x="416" y="176" width="16" height="16"/>
			<rect x="384" y="176" width="16" height="16"/>
			<rect x="416" y="144" width="16" height="16"/>
		</g>
	</g>
</g>
</svg>